<?xml version="1.0" encoding="utf-8"?>
<!-- Generator: Adobe Illustrator 25.3.1, SVG Export Plug-In . SVG Version: 6.00 Build 0)  -->
<svg version="1.1" id="Layer_1" xmlns="http://www.w3.org/2000/svg" xmlns:xlink="http://www.w3.org/1999/xlink" x="0px" y="0px"
	 viewBox="0 0 1500 1002" style="enable-background:new 0 0 1500 1002;" xml:space="preserve">
<style type="text/css">
	.st0{fill:#BF8334;}
	.st1{fill:#BF2F2F;}
	.st2{fill:#D2F4F5;}
	.st3{fill:#BFAF35;}
	.st4{fill:#86C02E;}
	.st5{fill:#3686C3;}
	.st6{fill:#AE35C0;}
	.st7{fill:#EDF4D3;}
</style>
<g>
	<g>
		<path d="M0,0h1500v1002H0V0z M813.88,239.46c-41.42,0.32-82.82,0.94-124.24,1.27c-55.47,0.56-110.93,1.15-166.4,1.68
			c-1.51,4.8,0.33,9.79-0.6,14.64c-1.05,5.68-2.41,11.31-3.32,17.02c-0.08,3.94,0.53,7.85,0.63,11.79
			c8.54,0.03,17.08-0.12,25.62-0.18c-2.76,16.41-5.48,32.83-8.25,49.24c-0.78,4.97,0.49,9.97,0.29,14.96
			c-1.7,11.67-3.94,23.27-5.59,34.95c18.01-0.07,36.01-0.45,54.02-0.57c0.06,1.22,0.13,2.44,0.21,3.67
			c36.24-0.32,72.47-0.75,108.7-1.25c33.94-0.2,67.88-0.94,101.82-1.12c0.34-1.26,0.3-2.68,1.02-3.79
			c12.7-0.26,25.41-0.31,38.12-0.47c12.95,0.05,25.91-0.47,38.86-0.43c0.24,1.25,0.49,2.5,0.76,3.76
			c20.49-0.46,40.98-0.27,61.47-0.85c1.5,0.15,3.23-0.38,4.62,0.39c1.19,3.42,1.73,7.02,2.69,10.52c1.32,5.36,2.66,10.73,3.98,16.1
			c-8.06-0.14-16.1,0.39-24.15,0.37c-0.66,7.67-0.7,15.39-1.42,23.06c-4.83,0.12-9.66,0.11-14.48,0.18
			c1.5,7.71,3.15,15.38,4.61,23.1c-14.2,0.12-28.4,0.31-42.6,0.38c1.93,14.14,4.48,28.21,6.75,42.3
			c-10.15,0.04-20.3,0.16-30.44,0.28c-2.47-18.78-5.12-37.53-7.53-56.31c-46.74,0.21-93.46,1.13-140.2,1.6
			c-0.05,3.87-0.11,7.76,0.14,11.64c-44.88,0.61-89.77,1.12-134.65,1.74c-1.96,15.06-3.56,30.18-5.69,45.22
			c-12.18-0.04-24.36,0.39-36.54,0.42c-0.41-4.41-0.76-8.82-0.97-13.24c-3.37-0.06-6.74,0-10.1,0.14
			c-15.3,92.31-30.83,184.59-46.31,276.87c-1.1,0.26-2.21,0.54-3.3,0.82c-0.56,4.51-2.13,8.99-1.47,13.58
			c0.94,7.94,1.76,15.9,2.62,23.86c82.35-21.98,164.57-44.47,246.95-66.34l-0.01-0.26c11.02-2.66,21.9-5.84,32.87-8.71
			c54.93-14.85,109.88-29.62,164.81-44.46c61.98-16.66,123.93-33.45,185.92-50.06l0.2-0.23c90-13.5,180.08-26.76,270.1-40.24
			c1.57-8.23,3.72-16.34,5.14-24.59c-2.06-5.51-5.07-10.61-7.45-15.98c-27.99-58.37-55.94-116.75-83.96-175.1
			c-14.33-30.06-28.72-60.09-43.08-90.14c-50.99,1.51-101.97,3.67-152.96,5.05c-3.2-7.91-6.6-15.74-9.93-23.59
			c-19.69,0.23-39.38,0.43-59.06,0.64c-3.84-11.79-8.43-23.31-12.28-35.09C937.84,238.04,875.86,238.93,813.88,239.46z"/>
	</g>
</g>
<g>
	<path class="st0" d="M813.88,239.46c61.98-0.53,123.96-1.42,185.94-1.76c3.85,11.78,8.44,23.3,12.28,35.09
		c-12.41,0.34-24.82,0.27-37.22,0.51c0.9,3.9,2.27,7.66,3.41,11.49c1.41,4.74,0.51,9.71,0.15,14.54
		c-1.36,19.22-2.74,38.44-4.22,57.66c-0.7,7.02,3.54,13.23,4.08,20.08l-0.39,0.86c-3.53,0.7-7.15,0.45-10.72,0.43
		c1.39,5.21,3.19,10.34,4.01,15.7c-8.96,0.7-17.94-0.13-26.89,0.63c-0.96-3.5-1.5-7.1-2.69-10.52c-1.39-0.77-3.12-0.24-4.62-0.39
		c-20.49,0.58-40.98,0.39-61.47,0.85c-0.27-1.26-0.52-2.51-0.76-3.76c-12.95-0.04-25.91,0.48-38.86,0.43
		c-1.47-10.82-3.01-21.63-4.57-32.43c-0.86-5.93,0.11-11.89,0.12-17.84c-0.08-7.67,0.51-15.35,0.26-23.01
		c-1.99-10.88-4.19-21.81-4.6-32.9c-3.93,0.12-7.86,0.07-11.78-0.18c-0.87-5.95-1.82-11.94-1.54-17.99
		C814.03,251.13,814.29,245.29,813.88,239.46z"/>
</g>
<g>
	<path class="st1" d="M689.64,240.73c41.42-0.33,82.82-0.95,124.24-1.27c0.41,5.83,0.15,11.67-0.08,17.49
		c-0.28,6.05,0.67,12.04,1.54,17.99c3.92,0.25,7.85,0.3,11.78,0.18c0.41,11.09,2.61,22.02,4.6,32.9c0.25,7.66-0.34,15.34-0.26,23.01
		c-0.01,5.95-0.98,11.91-0.12,17.84c1.56,10.8,3.1,21.61,4.57,32.43c-12.71,0.16-25.42,0.21-38.12,0.47
		c-0.72,1.11-0.68,2.53-1.02,3.79c-33.94,0.18-67.88,0.92-101.82,1.12c-0.49-9.9,0.11-19.79-0.14-29.69
		c-0.52-24.73-0.51-49.47-1.17-74.21c-2,0.01-4,0.01-5.98,0.02c0.14-11.27,0.18-22.53,0.27-33.79
		C687.88,246.15,688.62,243.38,689.64,240.73z"/>
</g>
<g>
	<path class="st2" d="M523.24,242.41c55.47-0.53,110.93-1.12,166.4-1.68c-1.02,2.65-1.76,5.42-1.71,8.28
		c-0.09,11.26-0.13,22.52-0.27,33.79c1.98-0.01,3.98-0.01,5.98-0.02c0.66,24.74,0.65,49.48,1.17,74.21
		c0.25,9.9-0.35,19.79,0.14,29.69c-36.23,0.5-72.46,0.93-108.7,1.25c-0.08-1.23-0.15-2.45-0.21-3.67
		c-18.01,0.12-36.01,0.5-54.02,0.57c1.65-11.68,3.89-23.28,5.59-34.95c0.2-4.99-1.07-9.99-0.29-14.96
		c2.77-16.41,5.49-32.83,8.25-49.24c-8.54,0.06-17.08,0.21-25.62,0.18c-0.1-3.94-0.71-7.85-0.63-11.79
		c0.91-5.71,2.27-11.34,3.32-17.02C523.57,252.2,521.73,247.21,523.24,242.41z"/>
</g>
<g>
	<path class="st3" d="M1012.1,272.79c19.68-0.21,39.37-0.41,59.06-0.64c3.33,7.85,6.73,15.68,9.93,23.59
		c50.99-1.38,101.97-3.54,152.96-5.05c14.36,30.05,28.75,60.08,43.08,90.14c-3.68-0.01-7.35,0.08-11.01,0.27
		c-0.62,3.13-1.22,6.27-1.78,9.41c-34.13,0.39-68.27,1-102.4,0.96c-3.21,0.48-4.24-2.87-5.36-5.13
		c-3.76-8.77-8.04-17.31-11.82-26.07c-1.1-1.91-1.93-5.1-4.73-4.64c-34.23,0.01-68.47,0.97-102.71,0.77
		c-0.61,4.18-0.87,8.41-1.29,12.61c-0.06,3.35-3.55,5.43-3.31,8.89c-0.66,10.67-1.79,21.3-2.66,31.95
		c-27.25,0.79-54.52,0.66-81.77,0.94c-1.32-5.37-2.66-10.74-3.98-16.1c8.95-0.76,17.93,0.07,26.89-0.63
		c-0.82-5.36-2.62-10.49-4.01-15.7c3.57,0.02,7.19,0.27,10.72-0.43l0.39-0.86c-0.54-6.85-4.78-13.06-4.08-20.08
		c1.48-19.22,2.86-38.44,4.22-57.66c0.36-4.83,1.26-9.8-0.15-14.54c-1.14-3.83-2.51-7.59-3.41-11.49
		C987.28,273.06,999.69,273.13,1012.1,272.79z"/>
</g>
<g>
	<path class="st4" d="M1037.32,356.4c34.24,0.2,68.48-0.76,102.71-0.77c2.8-0.46,3.63,2.73,4.73,4.64
		c3.78,8.76,8.06,17.3,11.82,26.07c1.12,2.26,2.15,5.61,5.36,5.13c34.13,0.04,68.27-0.57,102.4-0.96c0.56-3.14,1.16-6.28,1.78-9.41
		c3.66-0.19,7.33-0.28,11.01-0.27c28.02,58.35,55.97,116.73,83.96,175.1c2.38,5.37,5.39,10.47,7.45,15.98
		c-1.42,8.25-3.57,16.36-5.14,24.59c-90.02,13.48-180.1,26.74-270.1,40.24c0.55-0.65,1.13-1.27,1.74-1.88
		c0.75-6.65,1.61-13.28,2.46-19.91c0.68-3.96-0.83-7.75-2-11.44c-1.61,0.1-3.23,0.2-4.81,0.32c-6.51-20-12.98-40.01-19.45-60.02
		c-1.15-3.85-3.12-7.65-2.76-11.78c2.31-21.68,4.96-43.35,6.99-65.05c-1.12-6.1-3.98-11.73-5.75-17.66
		c-4.85-13.25-9.09-26.72-14.28-39.83c-8.46,0.32-16.93,0.12-25.38,0.36c0.87-10.65,2-21.28,2.66-31.95
		c-0.24-3.46,3.25-5.54,3.31-8.89C1036.45,364.81,1036.71,360.58,1037.32,356.4z"/>
</g>
<g>
	<path class="st5" d="M948.29,410.79c27.25-0.28,54.52-0.15,81.77-0.94c8.45-0.24,16.92-0.04,25.38-0.36
		c5.19,13.11,9.43,26.58,14.28,39.83c1.77,5.93,4.63,11.56,5.75,17.66c-2.03,21.7-4.68,43.37-6.99,65.05
		c-0.36,4.13,1.61,7.93,2.76,11.78c6.47,20.01,12.94,40.02,19.45,60.02c1.58-0.12,3.2-0.22,4.81-0.32c1.17,3.69,2.68,7.48,2,11.44
		c-0.85,6.63-1.71,13.26-2.46,19.91c-0.61,0.61-1.19,1.23-1.74,1.88l-0.2,0.23c-61.99,16.61-123.94,33.4-185.92,50.06
		c-0.23-11.23,2.57-22.52,0.1-33.64c-1.91,0.08-3.81,0.18-5.7,0.28c-2.5-16.31-5.25-32.59-7.91-48.87
		c-0.98-7.58,0.23-15.17,0.84-22.71c0.17-11.48,2.48-23.12-0.26-34.46c-2.4-13.96-4.77-27.91-7.16-41.86
		c-2.97-0.09-5.93-0.12-8.89-0.1c-0.42-1.83-0.83-3.66-1.2-5.49c-2.27-14.09-4.82-28.16-6.75-42.3c14.2-0.07,28.4-0.26,42.6-0.38
		c-1.46-7.72-3.11-15.39-4.61-23.1c4.82-0.07,9.65-0.06,14.48-0.18c0.72-7.67,0.76-15.39,1.42-23.06
		C932.19,411.18,940.23,410.65,948.29,410.79z"/>
</g>
<g>
	<path class="st6" d="M698.83,445.75c46.74-0.47,93.46-1.39,140.2-1.6c2.41,18.78,5.06,37.53,7.53,56.31
		c10.14-0.12,20.29-0.24,30.44-0.28c0.37,1.83,0.78,3.66,1.2,5.49c2.96-0.02,5.92,0.01,8.89,0.1c2.39,13.95,4.76,27.9,7.16,41.86
		c2.74,11.34,0.43,22.98,0.26,34.46c-0.61,7.54-1.82,15.13-0.84,22.71c2.66,16.28,5.41,32.56,7.91,48.87c1.89-0.1,3.79-0.2,5.7-0.28
		c2.47,11.12-0.33,22.41-0.1,33.64c-54.93,14.84-109.88,29.61-164.81,44.46c-10.97,2.87-21.85,6.05-32.87,8.71
		c-0.64-44.06-0.84-88.12-1.31-132.18c-0.54-33.76-0.91-67.52-1.37-101.27c-2.52-0.03-5.04-0.05-7.55-0.05
		c-0.17-16.44,0.19-32.89-0.3-49.31C698.72,453.51,698.78,449.62,698.83,445.75z"/>
</g>
<g>
	<path class="st7" d="M564.32,459.13c44.88-0.62,89.77-1.13,134.65-1.74c0.49,16.42,0.13,32.87,0.3,49.31
		c2.51,0,5.03,0.02,7.55,0.05c0.46,33.75,0.83,67.51,1.37,101.27c0.47,44.06,0.67,88.12,1.31,132.18l0.01,0.26
		c-82.38,21.87-164.6,44.36-246.95,66.34c-0.86-7.96-1.68-15.92-2.62-23.86c-0.66-4.59,0.91-9.07,1.47-13.58
		c1.09-0.28,2.2-0.56,3.3-0.82c15.48-92.28,31.01-184.56,46.31-276.87c3.36-0.14,6.73-0.2,10.1-0.14c0.21,4.42,0.56,8.83,0.97,13.24
		c12.18-0.03,24.36-0.46,36.54-0.42C560.76,489.31,562.36,474.19,564.32,459.13z"/>
</g>
</svg>
