<?xml version="1.0" encoding="utf-8"?>
<!-- Generator: Adobe Illustrator 25.3.1, SVG Export Plug-In . SVG Version: 6.00 Build 0)  -->
<svg version="1.1" id="Layer_1" xmlns="http://www.w3.org/2000/svg" xmlns:xlink="http://www.w3.org/1999/xlink" x="0px" y="0px"
	 viewBox="0 0 1500 1002" style="enable-background:new 0 0 1500 1002;" xml:space="preserve">
<style type="text/css">
	.st0{fill:#BF8334;}
	.st1{fill:#BFAF35;}
	.st2{fill:#BF2F2F;}
	.st3{fill:#D2F4F5;}
	.st4{fill:#86C02E;}
	.st5{fill:#3686C3;}
	.st6{fill:#AE35C0;}
	.st7{fill:#EDF4D3;}
</style>
<g>
	<g>
		<path d="M0,0h1500v1002H0V0z M679.57,242.4c-39.8,6.2-79.61,12.29-119.4,18.5c-55.67,8.56-111.31,17.23-166.97,25.81
			c0.74,6.95,1.31,13.96,2.44,20.85c3.95,7.92,8.14,15.72,12.29,23.53c9.67-1.45,19.3-3.14,28.97-4.63
			c18.28,33.07,36.89,65.97,55.13,99.06c18.18-3.18,36.35-6.43,54.46-9.93c0.87,1.18,1.65,2.4,2.41,3.67
			c35.19-6.21,70.32-12.78,105.48-19.17c20.51-3.69,41.01-7.49,61.51-11.21c11.46-2.31,23.12-3.81,34.46-6.59
			c-0.02-1.24-0.02-2.48-0.01-3.71c10.88-2,21.83-3.71,32.63-6.06l0.15,0.2c11.8-2.23,23.63-4.31,35.44-6.48
			c1.03,1.14,2.09,2.26,3.19,3.37c18.7-3.53,37.45-6.83,56.16-10.31c1.14-0.08,2.63-0.72,3.54,0.34c3.06,2.93,5.99,6.01,9.02,8.98
			c5.61,5.61,11.18,11.27,16.86,16.81c5.57,5.68,11.21,11.3,16.86,16.89c-11.41,2.01-22.76,4.39-34.16,6.48
			c-1.99,0.41-4.07,0.58-5.86,1.61c6.48,6.37,12.76,12.98,18.75,19.8c-4.24,0.75-8.42,1.82-12.68,2.36
			c-2.3-2.78-4.97-5.22-7.28-7.98c-41.09,7.71-82.08,16.01-123.14,23.87c-1.44,0.19-2.84,0.56-4.14,1.18
			c0.18,4.04,0.03,8.08,0.13,12.13c-39.53,7.74-79.03,15.6-118.55,23.38c0.28,8.62,0.53,17.25,0.97,25.88
			c-2.34,0.4-4.65,0.87-6.95,1.38c0.3,5.72,0.5,11.44,0.63,17.17c-19.1,3.89-38.2,7.77-57.27,11.78c-2.68-3.92-4.41-8.65-7.48-12.18
			c-3.14,0.47-6.22,1.29-9.35,1.76c0.46,4.9-0.03,10.06,1.38,14.79c54.58,97.97,109.32,195.86,163.88,293.86
			c61.55-38.55,122.92-77.42,184.52-115.89l0.02-0.55c2.19-0.85,4.16-2.14,6.13-3.41c44.13-27.84,88.32-55.6,132.46-83.42
			c39.76-24.95,79.45-49.99,119.19-74.95c2.02-1.22,3.88-2.82,6.23-3.41l-0.53-0.74c2.95-0.2,5.52-1.8,8.23-2.84
			c59.4-24.97,118.83-49.87,178.22-74.86c1.34-7.81,3.38-15.51,4.5-23.36c-62.52-49.79-124.85-99.82-187.31-149.69
			c-30.01-24.12-60.18-48.06-90.11-72.28c-32.27,5.97-64.44,12.47-96.67,18.65c-7.05-5.52-13.91-11.31-21.04-16.73
			c-3.41-0.05-6.75,0.9-10.11,1.33c-22.6,3.69-45.22,7.3-67.82,11.01c-1.41,0.23-2.82,0.24-4.21,0.03l0.13-0.56
			c-11.89-10.61-23.95-21.03-35.82-31.67C792.56,224.84,736.08,233.71,679.57,242.4z"/>
	</g>
</g>
<g>
	<path class="st0" d="M679.57,242.4c56.51-8.69,112.99-17.56,169.51-26.15c11.87,10.64,23.93,21.06,35.82,31.67l-0.13,0.56
		c-0.13,0.53-0.38,1.58-0.5,2.11c4.12,3.23,7.71,7.06,11.85,10.28c1.97,1.09,1.36,3.47,1.33,5.3c-1.1,21.63-1.95,43.27-3.05,64.9
		c-0.18,1.06,0.08,1.98,0.78,2.76c4.66,4.89,10.03,9.11,14.29,14.39c-2.86,0.8-5.76,1.38-8.66,1.92c2.98,5.58,9.11,8.52,13.08,13.36
		c-7.63,2.48-15.8,2.63-23.42,5.12c-3.03-2.97-5.96-6.05-9.02-8.98c-0.91-1.06-2.4-0.42-3.54-0.34
		c-18.71,3.48-37.46,6.78-56.16,10.31c-1.1-1.11-2.16-2.23-3.19-3.37c-11.81,2.17-23.64,4.25-35.44,6.48l-0.15-0.2
		c-8.75-10.7-18.3-20.75-27.32-31.22c-2.14-2.22-1.06-5.56-1.3-8.31c-0.16-10.57,0.54-21.18-0.3-31.72
		c-2.2-0.31-4.87,0.07-6.35-1.96c-5.63-6.07-11.16-12.24-16.84-18.27c-2.09-1.98-2.03-5.03-2.43-7.67c-3.2-0.14-6.31,0.75-9.47,0.92
		c-3.94-2.78-6.63-6.93-10.01-10.32c-5.54-5.77-10.6-12.02-16.29-17.63c-3.25-0.43-6.51,0.67-9.74,1.02
		C681.8,245.7,680.68,244.05,679.57,242.4z"/>
</g>
<g>
	<path class="st1" d="M987.95,252.84c32.23-6.18,64.4-12.68,96.67-18.65c29.93,24.22,60.1,48.16,90.11,72.28
		c-2.17,1.76-5.25,1.37-7.47,2.86c-1.36,2.47-1.24,5.48-1.81,8.2c-14.67,3.44-29.64,5.53-44.4,8.57c-1.63,0.2-3.55,0.99-4.92-0.3
		c-9.98-7.65-19.85-15.43-29.76-23.16c-1.76-1.61-4.02-2.47-6.37-1.71c-25.21,4.52-50.43,8.99-75.65,13.51
		c-3.02,0.46-6.04,0.94-8.97,1.77c-1.3,6.29,0.46,13.19-2.15,19.12c-2.34,0.67-5.38,1.76-7.43-0.05c-1.73-1.32-3.93-3.48-6.08-1.58
		c-0.99,2.63-0.73,5.54-0.94,8.3c-0.02,7.01-1.3,13.92-1.5,20.92c-0.28,2.8,0.01,5.76-0.96,8.44c-1.61,0.99-3.53,1.25-5.33,1.64
		c-19.05,3.53-38.08,7.14-57.12,10.72c-2.22,0.43-4.39,1.04-6.54,1.71c-5.68-5.54-11.25-11.2-16.86-16.81
		c7.62-2.49,15.79-2.64,23.42-5.12c-3.97-4.84-10.1-7.78-13.08-13.36c2.9-0.54,5.8-1.12,8.66-1.92c-4.26-5.28-9.63-9.5-14.29-14.39
		c-0.7-0.78-0.96-1.7-0.78-2.76c1.1-21.63,1.95-43.27,3.05-64.9c0.03-1.83,0.64-4.21-1.33-5.3c-4.14-3.22-7.73-7.05-11.85-10.28
		c0.12-0.53,0.37-1.58,0.5-2.11c1.39,0.21,2.8,0.2,4.21-0.03c22.6-3.71,45.22-7.32,67.82-11.01c3.36-0.43,6.7-1.38,10.11-1.33
		C974.04,241.53,980.9,247.32,987.95,252.84z"/>
</g>
<g>
	<path class="st2" d="M560.17,260.9c39.79-6.21,79.6-12.3,119.4-18.5c1.11,1.65,2.23,3.3,3.35,4.96c3.23-0.35,6.49-1.45,9.74-1.02
		c5.69,5.61,10.75,11.86,16.29,17.63c3.38,3.39,6.07,7.54,10.01,10.32c3.16-0.17,6.27-1.06,9.47-0.92c0.4,2.64,0.34,5.69,2.43,7.67
		c5.68,6.03,11.21,12.2,16.84,18.27c1.48,2.03,4.15,1.65,6.35,1.96c0.84,10.54,0.14,21.15,0.3,31.72c0.24,2.75-0.84,6.09,1.3,8.31
		c9.02,10.47,18.57,20.52,27.32,31.22c-10.8,2.35-21.75,4.06-32.63,6.06c-0.01,1.23-0.01,2.47,0.01,3.71
		c-11.34,2.78-23,4.28-34.46,6.59c-20.5,3.72-41,7.52-61.51,11.21c-0.2-3.73-0.01-7.48-0.37-11.2c-0.58-2.16-2.3-3.72-3.69-5.36
		c-2.3,0.54-4.62,0.98-6.95,1.33c-1.52-2.31-3.8-4.3-4.58-6.99c-0.89-23.79-1.72-47.59-2.6-71.38c-1.08-3.46-4.23-5.87-6.17-8.88
		c-1.99,0.17-4.01,0.89-5.98,0.51c-8.14-9.79-15.65-20.12-23.74-29.96c-12.33,1.99-24.67,3.96-37.02,5.81
		C562.8,269.51,563.83,264.29,560.17,260.9z"/>
</g>
<g>
	<path class="st3" d="M393.2,286.71c55.66-8.58,111.3-17.25,166.97-25.81c3.66,3.39,2.63,8.61,3.11,13.07
		c12.35-1.85,24.69-3.82,37.02-5.81c8.09,9.84,15.6,20.17,23.74,29.96c1.97,0.38,3.99-0.34,5.98-0.51c1.94,3.01,5.09,5.42,6.17,8.88
		c0.88,23.79,1.71,47.59,2.6,71.38c0.78,2.69,3.06,4.68,4.58,6.99c2.33-0.35,4.65-0.79,6.95-1.33c1.39,1.64,3.11,3.2,3.69,5.36
		c0.36,3.72,0.17,7.47,0.37,11.2c-35.16,6.39-70.29,12.96-105.48,19.17c-0.76-1.27-1.54-2.49-2.41-3.67
		c-18.11,3.5-36.28,6.75-54.46,9.93c-18.24-33.09-36.85-65.99-55.13-99.06c-9.67,1.49-19.3,3.18-28.97,4.63
		c-4.15-7.81-8.34-15.61-12.29-23.53C394.51,300.67,393.94,293.66,393.2,286.71z"/>
</g>
<g>
	<path class="st4" d="M1004.35,314.44c25.22-4.52,50.44-8.99,75.65-13.51c2.35-0.76,4.61,0.1,6.37,1.71
		c9.91,7.73,19.78,15.51,29.76,23.16c1.37,1.29,3.29,0.5,4.92,0.3c14.76-3.04,29.73-5.13,44.4-8.57c0.57-2.72,0.45-5.73,1.81-8.2
		c2.22-1.49,5.3-1.1,7.47-2.86c62.46,49.87,124.79,99.9,187.31,149.69c-1.12,7.85-3.16,15.55-4.5,23.36
		c-59.39,24.99-118.82,49.89-178.22,74.86c-2.71,1.04-5.28,2.64-8.23,2.84c0.49-8.01,2.69-15.83,2.75-23.87
		c-2.28-2.01-4.52-4.06-6.76-6.09c-2.61,1.65-5.22,3.31-8.02,4.59c-21.25-20.15-43.34-39.42-64.58-59.57
		c2.14-14.55,3.45-29.21,5.27-43.8c0.56-7.08,2.17-14.12,2-21.24c-2.91-3.64-7.14-6.17-10.52-9.42
		c-14.7-12.49-29.26-25.14-44.05-37.52c-37.25,7.1-74.52,14.07-111.77,21.14c-0.94,6.2-0.77,12.5-1.11,18.75
		c-3.32,0.94-6.71,1.59-10.11,2.13c-5.65-5.59-11.29-11.21-16.86-16.89c2.15-0.67,4.32-1.28,6.54-1.71
		c19.04-3.58,38.07-7.19,57.12-10.72c1.8-0.39,3.72-0.65,5.33-1.64c0.97-2.68,0.68-5.64,0.96-8.44c0.2-7,1.48-13.91,1.5-20.92
		c0.21-2.76-0.05-5.67,0.94-8.3c2.15-1.9,4.35,0.26,6.08,1.58c2.05,1.81,5.09,0.72,7.43,0.05c2.61-5.93,0.85-12.83,2.15-19.12
		C998.31,315.38,1001.33,314.9,1004.35,314.44z"/>
</g>
<g>
	<path class="st5" d="M935.41,381.44c37.25-7.07,74.52-14.04,111.77-21.14c14.79,12.38,29.35,25.03,44.05,37.52
		c3.38,3.25,7.61,5.78,10.52,9.42c0.17,7.12-1.44,14.16-2,21.24c-1.82,14.59-3.13,29.25-5.27,43.8
		c21.24,20.15,43.33,39.42,64.58,59.57c2.8-1.28,5.41-2.94,8.02-4.59c2.24,2.03,4.48,4.08,6.76,6.09
		c-0.06,8.04-2.26,15.86-2.75,23.87l0.53,0.74c-2.35,0.59-4.21,2.19-6.23,3.41c-39.74,24.96-79.43,50-119.19,74.95
		c0.3-8.13,1.6-16.18,2.24-24.27c-1.3-3.16-4.38-5.22-6.47-7.86c-5.73,2.85-10.76,6.9-16.53,9.65
		c-13.77-15.32-27.71-30.48-41.51-45.76c-1.52-1.74-3.41-3.22-4.52-5.26c-0.33-7.99,1.57-15.86,1.96-23.83
		c0.23-6.04,1.22-12.03,1.33-18.08c0.3-1.85-1.2-3.1-2.27-4.33c-10-10.34-19.8-20.87-29.73-31.27c-3.32-3.29-6.15-7.08-9.77-10.04
		c-3.2-0.07-6.3,1.62-9.45,1.16c-13.9-14.45-27.49-29.25-41.24-43.86c4.26-0.54,8.44-1.61,12.68-2.36
		c-5.99-6.82-12.27-13.43-18.75-19.8c1.79-1.03,3.87-1.2,5.86-1.61c11.4-2.09,22.75-4.47,34.16-6.48c3.4-0.54,6.79-1.19,10.11-2.13
		C934.64,393.94,934.47,387.64,935.41,381.44z"/>
</g>
<g>
	<path class="st6" d="M759.82,448.46c41.06-7.86,82.05-16.16,123.14-23.87c2.31,2.76,4.98,5.2,7.28,7.98
		c13.75,14.61,27.34,29.41,41.24,43.86c3.15,0.46,6.25-1.23,9.45-1.16c3.62,2.96,6.45,6.75,9.77,10.04
		c9.93,10.4,19.73,20.93,29.73,31.27c1.07,1.23,2.57,2.48,2.27,4.33c-0.11,6.05-1.1,12.04-1.33,18.08
		c-0.39,7.97-2.29,15.84-1.96,23.83c1.11,2.04,3,3.52,4.52,5.26c13.8,15.28,27.74,30.44,41.51,45.76c5.77-2.75,10.8-6.8,16.53-9.65
		c2.09,2.64,5.17,4.7,6.47,7.86c-0.64,8.09-1.94,16.14-2.24,24.27c-44.14,27.82-88.33,55.58-132.46,83.42
		c-1.97,1.27-3.94,2.56-6.13,3.41c0.23-7.39,0.79-14.77,1.21-22.15c1.01-4.97-3.89-7.95-6.12-11.75c-2.14,1.23-4.29,2.44-6.43,3.64
		c-26.54-35.51-53.39-70.79-80.01-106.24c-1-1.32-0.51-3.11-0.62-4.63c0.62-21.38,0.94-42.77,1.54-64.15
		c0.27-1.98-1.28-3.38-2.34-4.81c-2.42-2.96-4.8-5.94-7.16-8.94c-2.31,0.39-4.61,0.84-6.89,1.35
		c-12.1-15.06-24.12-30.19-36.11-45.35c-2.97,0.53-5.92,1.09-8.87,1.65c-0.1-4.05,0.05-8.09-0.13-12.13
		C756.98,449.02,758.38,448.65,759.82,448.46z"/>
</g>
<g>
	<path class="st7" d="M755.81,461.77c2.95-0.56,5.9-1.12,8.87-1.65c11.99,15.16,24.01,30.29,36.11,45.35
		c2.28-0.51,4.58-0.96,6.89-1.35c2.36,3,4.74,5.98,7.16,8.94c1.06,1.43,2.61,2.83,2.34,4.81c-0.6,21.38-0.92,42.77-1.54,64.15
		c0.11,1.52-0.38,3.31,0.62,4.63c26.62,35.45,53.47,70.73,80.01,106.24c2.14-1.2,4.29-2.41,6.43-3.64c2.23,3.8,7.13,6.78,6.12,11.75
		c-0.42,7.38-0.98,14.76-1.21,22.15l-0.02,0.55c-61.6,38.47-122.97,77.34-184.52,115.89c-54.56-98-109.3-195.89-163.88-293.86
		c-1.41-4.73-0.92-9.89-1.38-14.79c3.13-0.47,6.21-1.29,9.35-1.76c3.07,3.53,4.8,8.26,7.48,12.18c19.07-4.01,38.17-7.89,57.27-11.78
		c-0.13-5.73-0.33-11.45-0.63-17.17c2.3-0.51,4.61-0.98,6.95-1.38c-0.44-8.63-0.69-17.26-0.97-25.88
		C676.78,477.37,716.28,469.51,755.81,461.77z"/>
</g>
</svg>
