<?xml version="1.0" encoding="utf-8"?>
<!-- Generator: Adobe Illustrator 25.3.1, SVG Export Plug-In . SVG Version: 6.00 Build 0)  -->
<svg version="1.1" id="Layer_1" xmlns="http://www.w3.org/2000/svg" xmlns:xlink="http://www.w3.org/1999/xlink" x="0px" y="0px"
	 viewBox="0 0 1500 1002" style="enable-background:new 0 0 1500 1002;" xml:space="preserve">
<style type="text/css">
	.st0{fill:#BFAF35;}
	.st1{fill:#BF8434;}
	.st2{fill:#86C02E;}
	.st3{fill:#BF2F2F;}
	.st4{fill:#D2F4F5;}
	.st5{fill:#3686C3;}
	.st6{fill:#AE35C0;}
	.st7{fill:#EDF4D3;}
</style>
<g>
	<g>
		<path d="M0,0h1500v1002H0V0z M868.02,223.47c-6.05-2.56-12.13-5.02-18.16-7.6c-22.1,7.72-44.19,15.48-66.24,23.34
			c-12.8-5.84-25.75-11.37-38.58-17.16c-6.41,1.96-12.72,4.26-19.08,6.4c-10-4.38-19.81-9.27-29.95-13.3
			c-48.3,15.7-96.51,31.75-144.75,47.66c-35.64,11.82-71.41,23.28-106.92,35.43c-1.7,0.18-3.27,0.89-4.87,1.39
			c-50.58,16.76-101.21,33.35-151.79,50.12c1.18,7.12,2.22,14.28,3.18,21.44c10.39,7.28,20.87,14.45,31.27,21.73
			c9.12-3.01,18.17-6.26,27.22-9.49c43.69,29.16,87.21,58.59,130.75,87.97c16.21-6.27,32.27-12.93,48.47-19.2
			c1.67,1.02,3.16,2.51,5.1,3.01c30.12-11.99,60.19-24.12,90.3-36.15c26.67-10.64,53.29-21.42,79.98-31.99
			c0.14-1.65,0.23-3.3,0.28-4.95c7.85-3.35,15.99-6.03,23.7-9.68l0.19,0.12c9.65-3.78,19.27-7.66,28.9-11.49
			c1.73,0.79,3.43,1.65,5.11,2.58c15.72-6.14,31.36-12.49,47.01-18.79c5.46,2.39,10.73,5.2,16.1,7.79
			c8.62,4.12,17.09,8.57,25.76,12.57c8.74,4.5,17.64,8.71,26.45,13.09c-8.7,3.56-17.28,7.4-25.96,11.01
			c-1.62,0.67-3.3,1.27-4.61,2.46c10.02,5.01,19.97,10.15,30,15.13c-9.09,4.4-18.52,8.08-27.66,12.38c-0.2,2.52,4.39,2.76,5.9,4.4
			c-14.7,6.31-29.21,13.06-43.93,19.31c-0.63,5.22-0.54,10.53-0.29,15.78c-28.19,12.74-56.45,25.32-84.63,38.08
			c0.11,7.49,0.06,14.97,0.22,22.46c-5.04,2.35-10.12,4.62-15.17,6.96c-0.01,3.52,0.06,7.05,0.06,10.59
			c-19.76,9.1-39.51,18.22-59.22,27.43c-4.1-2.76-8.28-5.37-12.33-8.2c-2.78,1.14-5.5,2.41-8.21,3.68
			c0.19,4.67,0.14,9.35,0.61,14.01c117.69,79.22,235.4,158.42,353.03,237.72c25.16-41.6,50.16-83.3,75.21-124.96
			c3.53-6.12,7.63-11.94,10.67-18.32c4.96-6.89,8.86-14.51,13.4-21.69c15.8-26.48,31.86-52.82,47.53-79.38
			c17.97-29.52,35.76-59.19,53.44-88.89c33.13-31.1,65.86-62.63,98.92-93.81c0.9-0.94,2.08-1.87,2.1-3.31
			c1.07-6.75,2.39-13.46,3.43-20.22c-81.07-34.99-162.11-70.03-243.19-104.99c-41.59-18.06-83.25-35.96-124.84-54.01
			C903.89,208.93,886,216.31,868.02,223.47z"/>
	</g>
</g>
<g>
	<path class="st0" d="M868.02,223.47c17.98-7.16,35.87-14.54,53.91-21.54c41.59,18.05,83.25,35.95,124.84,54.01
		c-2.02,1.02-4.04,2.02-6.06,3.02c-0.41,2.77-0.19,5.76-1.33,8.35c-3.86,1.84-7.93,4.21-12.23,4.4
		c-9.55-3.67-18.94-7.81-28.51-11.47c-2.18-1.07-4.45,0.21-6.5,0.91c-17.82,7.2-35.71,14.2-53.55,21.33
		c-2.31,1.04-5.08,1.45-6.93,3.24c-0.87,4.52-0.31,9.2-1.27,13.71c-4.36,2.58-9.33,4.01-13.99,5.98c-2.99,1.42-5.87-0.99-8.86-0.97
		c-2.36,1.2-1.44,4.46-1.83,6.62c0.11,10.5-1.24,20.94-1.22,31.44c-17.7,7.85-35.89,14.63-53.49,22.72
		c-8.67-4-17.14-8.45-25.76-12.57c4.93-4.02,11.56-4.9,17.07-7.92c-6.2-4.43-13.55-6.98-20.36-10.35c2.22-1.45,4.59-2.63,7.05-3.63
		c-7.36-4.12-15.32-7.06-22.69-11.14c-2.09-1.02-1.33-3.73-1.52-5.57c0.51-21.59,1.16-43.17,1.02-64.75
		c-7.26-3.67-14.92-6.45-22.19-10.08c22.05-7.86,44.14-15.62,66.24-23.34C855.89,218.45,861.97,220.91,868.02,223.47z"/>
</g>
<g>
	<path class="st1" d="M551.26,262.81c48.24-15.91,96.45-31.96,144.75-47.66c10.14,4.03,19.95,8.92,29.95,13.3
		c6.36-2.14,12.67-4.44,19.08-6.4c12.83,5.79,25.78,11.32,38.58,17.16c7.27,3.63,14.93,6.41,22.19,10.08
		c0.14,21.58-0.51,43.16-1.02,64.75c0.19,1.84-0.57,4.55,1.52,5.57c7.37,4.08,15.33,7.02,22.69,11.14c-2.46,1-4.83,2.18-7.05,3.63
		c6.81,3.37,14.16,5.92,20.36,10.35c-5.51,3.02-12.14,3.9-17.07,7.92c-5.37-2.59-10.64-5.4-16.1-7.79
		c-15.65,6.3-31.29,12.65-47.01,18.79c-1.68-0.93-3.38-1.79-5.11-2.58c-9.63,3.83-19.25,7.71-28.9,11.49l-0.19-0.12
		c-15.55-9.16-31.93-16.88-47.69-25.68c-1.08-0.55-2-1.4-1.71-2.73c-0.09-12.02-0.39-24.04-0.75-36.05
		c-2.55-1.22-5.13,0.38-7.72,0.51c-3.57-1.42-7.08-3.13-10.27-5.28c-0.95-3.65-0.06-7.53-0.7-11.23c-0.82-0.94-1.96-1.47-3-2.05
		c-18.03-8.91-35.95-18.02-53.9-27.09c-1.94-1.29-4.16-0.36-6.14,0.26c-11.46,3.94-22.98,7.72-34.43,11.66
		c-1.68,0.54-3.4,0.88-5.11,1.21c-0.07-3.29-0.26-6.56-0.56-9.83C554.37,265.04,552.81,263.92,551.26,262.81z"/>
</g>
<g>
	<path class="st2" d="M1046.77,255.94c81.08,34.96,162.12,70,243.19,104.99c-1.04,6.76-2.36,13.47-3.43,20.22
		c-0.02,1.44-1.2,2.37-2.1,3.31c-33.06,31.18-65.79,62.71-98.92,93.81c0.94-7.76,2.63-15.45,3.03-23.26
		c-3.22-1.35-6.36-2.85-9.6-4.1c-1.67,2.58-3.31,5.17-4.81,7.85c-22.07-9.57-43.72-20.14-65.62-30.13
		c-9.98-4.85-20.32-8.99-30.11-14.23c2.8-20.55,4.12-41.3,7.07-61.82c-2.34-2-5.3-2.91-8.06-4.11
		c-22.72-9.92-45.53-19.66-68.24-29.61c-1.21-0.54-2.55-0.85-3.76-0.18c-26.99,11.4-53.9,22.98-80.9,34.33c-0.16,3-0.32,6-0.57,9
		c-1.65-0.47-3.28-0.94-4.9-1.43c-13.87,5.89-27.69,11.91-41.59,17.73c-8.81-4.38-17.71-8.59-26.45-13.09
		c17.6-8.09,35.79-14.87,53.49-22.72c-0.02-10.5,1.33-20.94,1.22-31.44c0.39-2.16-0.53-5.42,1.83-6.62
		c2.99-0.02,5.87,2.39,8.86,0.97c4.66-1.97,9.63-3.4,13.99-5.98c0.96-4.51,0.4-9.19,1.27-13.71c1.85-1.79,4.62-2.2,6.93-3.24
		c17.84-7.13,35.73-14.13,53.55-21.33c2.05-0.7,4.32-1.98,6.5-0.91c9.57,3.66,18.96,7.8,28.51,11.47c4.3-0.19,8.37-2.56,12.23-4.4
		c1.14-2.59,0.92-5.58,1.33-8.35C1042.73,257.96,1044.75,256.96,1046.77,255.94z"/>
</g>
<g>
	<path class="st3" d="M596.05,263.1c1.98-0.62,4.2-1.55,6.14-0.26c17.95,9.07,35.87,18.18,53.9,27.09c1.04,0.58,2.18,1.11,3,2.05
		c0.64,3.7-0.25,7.58,0.7,11.23c3.19,2.15,6.7,3.86,10.27,5.28c2.59-0.13,5.17-1.73,7.72-0.51c0.36,12.01,0.66,24.03,0.75,36.05
		c-0.29,1.33,0.63,2.18,1.71,2.73c15.76,8.8,32.14,16.52,47.69,25.68c-7.71,3.65-15.85,6.33-23.7,9.68
		c-0.05,1.65-0.14,3.3-0.28,4.95c-26.69,10.57-53.31,21.35-79.98,31.99c-0.22-3.93-0.04-7.89-0.51-11.79
		c-1.8-1.83-4.31-2.74-6.46-4.07c-3.98,1.52-7.88,3.23-11.92,4.58c-3.69-2.32-7.49-4.45-11.22-6.7c-1.19-24.7-2.53-49.39-3.73-74.09
		c-4.03-2.26-8.12-4.42-12.17-6.65c-1.69,0.54-3.36,1.11-5.03,1.67c-15.68-8.4-31.23-17.06-46.85-25.57
		c-24.92,8.49-49.86,16.9-74.76,25.41c-0.93-6.92-1.31-13.9-2.13-20.83c-1.62-0.94-3.21-1.9-4.85-2.78
		c35.51-12.15,71.28-23.61,106.92-35.43c1.55,1.11,3.11,2.23,4.69,3.33c0.3,3.27,0.49,6.54,0.56,9.83c1.71-0.33,3.43-0.67,5.11-1.21
		C573.07,270.82,584.59,267.04,596.05,263.1z"/>
</g>
<g>
	<path class="st4" d="M451.32,321.85c24.9-8.51,49.84-16.92,74.76-25.41c15.62,8.51,31.17,17.17,46.85,25.57
		c1.67-0.56,3.34-1.13,5.03-1.67c4.05,2.23,8.14,4.39,12.17,6.65c1.2,24.7,2.54,49.39,3.73,74.09c3.73,2.25,7.53,4.38,11.22,6.7
		c4.04-1.35,7.94-3.06,11.92-4.58c2.15,1.33,4.66,2.24,6.46,4.07c0.47,3.9,0.29,7.86,0.51,11.79
		c-30.11,12.03-60.18,24.16-90.3,36.15c-1.94-0.5-3.43-1.99-5.1-3.01c-16.2,6.27-32.26,12.93-48.47,19.2
		c-43.54-29.38-87.06-58.81-130.75-87.97c-9.05,3.23-18.1,6.48-27.22,9.49c-10.4-7.28-20.88-14.45-31.27-21.73
		c-0.96-7.16-2-14.32-3.18-21.44c50.58-16.77,101.21-33.36,151.79-50.12c1.6-0.5,3.17-1.21,4.87-1.39c1.64,0.88,3.23,1.84,4.85,2.78
		C450.01,307.95,450.39,314.93,451.32,321.85z"/>
</g>
<g>
	<path class="st5" d="M1005.41,318.68c1.21-0.67,2.55-0.36,3.76,0.18c22.71,9.95,45.52,19.69,68.24,29.61
		c2.76,1.2,5.72,2.11,8.06,4.11c-2.95,20.52-4.27,41.27-7.07,61.82c9.79,5.24,20.13,9.38,30.11,14.23
		c21.9,9.99,43.55,20.56,65.62,30.13c1.5-2.68,3.14-5.27,4.81-7.85c3.24,1.25,6.38,2.75,9.6,4.1c-0.4,7.81-2.09,15.5-3.03,23.26
		c-17.68,29.7-35.47,59.37-53.44,88.89c0.52-7.88,1.96-15.66,2.8-23.51c-3.24-1.95-6.64-3.6-10.03-5.22
		c-4.46,5.84-7.37,12.88-12.1,18.42c-3.3-0.1-5.98-2.52-8.91-3.78c-24.84-12.92-49.72-25.79-74.49-38.84
		c1.29-14.1,3.03-28.16,4.15-42.28c-14.73-7.42-29.5-14.77-44.24-22.14c0.06-3.03,0.2-6.05,0.4-9.06
		c-26.04-13.3-52.42-25.92-78.52-39.09c-1.3-0.44-2.73-1.7-4.1-0.86c-17.33,7.57-34.54,15.42-51.91,22.89
		c-1.51-1.64-6.1-1.88-5.9-4.4c9.14-4.3,18.57-7.98,27.66-12.38c-10.03-4.98-19.98-10.12-30-15.13c1.31-1.19,2.99-1.79,4.61-2.46
		c8.68-3.61,17.26-7.45,25.96-11.01c13.9-5.82,27.72-11.84,41.59-17.73c1.62,0.49,3.25,0.96,4.9,1.43c0.25-3,0.41-6,0.57-9
		C951.51,341.66,978.42,330.08,1005.41,318.68z"/>
</g>
<g>
	<path class="st6" d="M855.12,423.69c17.37-7.47,34.58-15.32,51.91-22.89c1.37-0.84,2.8,0.42,4.1,0.86
		c26.1,13.17,52.48,25.79,78.52,39.09c-0.2,3.01-0.34,6.03-0.4,9.06c14.74,7.37,29.51,14.72,44.24,22.14
		c-1.12,14.12-2.86,28.18-4.15,42.28c24.77,13.05,49.65,25.92,74.49,38.84c2.93,1.26,5.61,3.68,8.91,3.78
		c4.73-5.54,7.64-12.58,12.1-18.42c3.39,1.62,6.79,3.27,10.03,5.22c-0.84,7.85-2.28,15.63-2.8,23.51
		c-15.67,26.56-31.73,52.9-47.53,79.38c-4.54,7.18-8.44,14.8-13.4,21.69c-0.36-7.84,1.49-15.69,2.16-23.52
		c-3.63-2.21-7.29-4.38-11.11-6.23c-1.63,2.86-3.39,5.65-5.16,8.42c-48.8-27.94-97.45-56.12-146.27-84.02
		c1.04-22.98,2.57-45.94,3.66-68.92c-5.77-3.03-11.35-6.4-17.26-9.13c-1.69,0.78-3.39,1.54-5.08,2.3
		c-21.72-11.81-43.44-23.62-65.2-35.37c-5.37,2.25-10.61,4.79-15.98,7.02c-0.25-5.25-0.34-10.56,0.29-15.78
		C825.91,436.75,840.42,430,855.12,423.69z"/>
</g>
<g>
	<path class="st7" d="M810.9,458.78c5.37-2.23,10.61-4.77,15.98-7.02c21.76,11.75,43.48,23.56,65.2,35.37
		c1.69-0.76,3.39-1.52,5.08-2.3c5.91,2.73,11.49,6.1,17.26,9.13c-1.09,22.98-2.62,45.94-3.66,68.92
		c48.82,27.9,97.47,56.08,146.27,84.02c1.77-2.77,3.53-5.56,5.16-8.42c3.82,1.85,7.48,4.02,11.11,6.23
		c-0.67,7.83-2.52,15.68-2.16,23.52c-3.04,6.38-7.14,12.2-10.67,18.32c-25.05,41.66-50.05,83.36-75.21,124.96
		c-117.63-79.3-235.34-158.5-353.03-237.72c-0.47-4.66-0.42-9.34-0.61-14.01c2.71-1.27,5.43-2.54,8.21-3.68
		c4.05,2.83,8.23,5.44,12.33,8.2c19.71-9.21,39.46-18.33,59.22-27.43c0-3.54-0.07-7.07-0.06-10.59c5.05-2.34,10.13-4.61,15.17-6.96
		c-0.16-7.49-0.11-14.97-0.22-22.46C754.45,484.1,782.71,471.52,810.9,458.78z"/>
</g>
</svg>
