<?xml version="1.0" encoding="utf-8"?>
<!-- Generator: Adobe Illustrator 25.3.1, SVG Export Plug-In . SVG Version: 6.00 Build 0)  -->
<svg version="1.1" id="Layer_1" xmlns="http://www.w3.org/2000/svg" xmlns:xlink="http://www.w3.org/1999/xlink" x="0px" y="0px"
	 viewBox="0 0 1500 1002" style="enable-background:new 0 0 1500 1002;" xml:space="preserve">
<style type="text/css">
	.st0{fill:#BFAF35;}
	.st1{fill:#86C02E;}
	.st2{fill:#BF8334;}
	.st3{fill:#3686C3;}
	.st4{fill:#BF2F2F;}
	.st5{fill:#D2F4F5;}
	.st6{fill:#AE35C0;}
	.st7{fill:#EDF4D3;}
</style>
<g>
	<g>
		<path d="M0,0h1500v1002H0V0z M727.78,211.74c-15.05,10.18-30.11,20.36-45.15,30.55c-16.73-3.73-33.41-7.64-50.19-11.11
			c-8.12,5.4-16.38,10.58-24.57,15.87c-20.28-4.49-40.5-9.3-60.78-13.81c-37.24,22.46-74.49,44.9-111.71,67.4
			c-28.4,17.14-56.85,34.2-85.21,51.41c-43.31,26.01-86.51,52.22-129.84,78.22c1.26,7.63,2.57,15.25,3.98,22.85
			c16.99,5.38,33.99,10.73,50.94,16.22c7.55-4.81,15.05-9.7,22.57-14.57c67.63,21.06,135.25,42.18,202.91,63.17
			c11.61-9.21,23.34-18.25,34.96-27.45c2.42,0.75,4.85,1.47,7.29,2.17c21.42-16.96,42.9-33.84,64.33-50.79
			c17.84-14.03,35.62-28.14,53.47-42.15c3.24-1.71,1.49-5.77,1.84-8.66c4.53-3.51,9.02-7.06,13.53-10.61
			c6.6-5.02,12.97-10.34,19.65-15.26c2.06,0.57,4.12,1.24,6.25,1.55c1.31-0.41,2.3-1.46,3.41-2.24
			c9.44-7.52,18.92-14.99,28.41-22.45c6.5,1.5,12.95,3.23,19.45,4.74c10.87,2.71,21.77,5.34,32.64,8.06
			c11.19,2.74,22.38,5.51,33.58,8.26c-6.59,5.57-13.03,11.32-19.57,16.95c12.71,3.26,25.47,6.35,38.17,9.69
			c-5.49,5.38-11.47,10.24-16.94,15.64c0,0.22,0.01,0.67,0.01,0.89c15.52,4.17,31.11,8.1,46.69,12.05c-3.36,3.16-6.69,6.35-9.97,9.6
			c-1.45,1.24-1.01,3.33-1.17,5.03c-0.04,7.3-0.53,14.59-0.52,21.9c-12.34,12.15-24.64,24.34-37,36.47c-1.33,1.14-1.7,2.9-1.77,4.58
			l-1.26-1.09l0.56,1.56c-1.48,0.01-2.69,0.73-3.64,1.79c-24.73,24.47-49.49,48.91-74.25,73.34c-3.59-1.09-7.16-2.21-10.75-3.26
			c-1.99,2.33-5.94,4.1-5.16,7.75c0.16,3.73,0.14,7.47,0.17,11.22c156.07,48.65,312.15,97.28,468.25,145.83
			c1.31-8.98,3.23-17.92,4.06-26.95c-6.01-45.65-12.14-91.29-18.2-136.93l-0.33-0.09c-0.34-7.43-1.83-14.74-2.65-22.11
			c-3.41-25.44-6.84-50.87-10.23-76.31c-3.54-26.52-7.14-53.05-10.57-79.59c6.15-24.96,11.88-50.04,17.89-75.04
			c2.38-8.97,2.97-18.27,4.36-27.41c-90.86-20.98-181.77-41.78-272.63-62.78c-49.71-11.34-99.37-22.93-149.09-34.26
			C745.27,198.32,736.62,205.15,727.78,211.74z"/>
	</g>
</g>
<g>
	<path class="st0" d="M727.78,211.74c8.84-6.59,17.49-13.42,26.22-20.16c49.72,11.33,99.38,22.92,149.09,34.26
		c-2.15,2.36-3.36,5.3-3.99,8.39c-1.96-0.23-3.89-0.73-5.85-0.61c-1.5,0.62-2.73,1.7-3.98,2.68c-7.28,6.09-14.8,11.89-22.14,17.91
		c-4.55,3.55-8.66,7.94-14.32,9.7c-0.73,2.37-1.06,5.15-3.26,6.67c-6.86,5.47-13.73,10.94-20.48,16.54c-2,1.89-4.89,1.08-7.34,1.12
		c-1.8,12.12-0.58,24.46-1.4,36.65c-0.1,1.68-1.73,2.6-2.8,3.69c-10.62,8.64-20.99,17.58-31.57,26.27
		c-10.87-2.72-21.77-5.35-32.64-8.06c3.62-3.45,7.68-6.4,11.27-9.9c-8.42-2.88-17.29-4.1-25.75-6.81c1.15-1.44,2.31-2.86,3.48-4.29
		c-9.32-2.7-18.89-4.43-28.24-7.01c-2.01-0.1-2.07-2.24-2.12-3.75c-0.37-19.69-0.62-39.38-0.61-59.08
		c-0.05-2.25,0.01-4.55-0.59-6.74c-0.94-1-2.5-0.98-3.71-1.39c-8.17-1.7-16.33-3.5-24.42-5.53
		C697.67,232.1,712.73,221.92,727.78,211.74z"/>
</g>
<g>
	<path class="st1" d="M903.09,225.84c90.86,21,181.77,41.8,272.63,62.78c-1.39,9.14-1.98,18.44-4.36,27.41
		c-6.01,25-11.74,50.08-17.89,75.04c-0.36-2.05-0.76-4.09-1.15-6.12c-3.54-0.84-7.12-1.52-10.72-1.98
		c-0.42,2.97-0.84,5.95-1.24,8.92c-24.42-5.48-48.76-11.37-73.14-17.04c-12.89-3.13-25.9-5.77-38.69-9.3
		c1.91-16.82,3.01-33.73,4.72-50.58c0.35-3.32,0.43-6.66,0.47-10c-29.33-6.11-58.55-12.74-87.82-19.12
		c-1.51-0.32-3.19-0.59-4.23,0.8c-15.56,14.18-31.34,28.14-46.88,42.35c-0.18,4.23-0.33,8.46-0.41,12.7
		c-1.37,1.25-2.73,2.49-4.09,3.74c-2.73-0.68-5.48-1.31-8.21-1.92c-1.62,1.43-3.24,2.86-4.85,4.28
		c-10.47-2.47-20.92-5.01-31.39-7.47c-8.77,7.59-17.47,15.26-26.3,22.78c-11.2-2.75-22.39-5.52-33.58-8.26
		c10.58-8.69,20.95-17.63,31.57-26.27c1.07-1.09,2.7-2.01,2.8-3.69c0.82-12.19-0.4-24.53,1.4-36.65c2.45-0.04,5.34,0.77,7.34-1.12
		c6.75-5.6,13.62-11.07,20.48-16.54c2.2-1.52,2.53-4.3,3.26-6.67c5.66-1.76,9.77-6.15,14.32-9.7c7.34-6.02,14.86-11.82,22.14-17.91
		c1.25-0.98,2.48-2.06,3.98-2.68c1.96-0.12,3.89,0.38,5.85,0.61C899.73,231.14,900.94,228.2,903.09,225.84z"/>
</g>
<g>
	<path class="st2" d="M632.44,231.18c16.78,3.47,33.46,7.38,50.19,11.11c8.09,2.03,16.25,3.83,24.42,5.53
		c1.21,0.41,2.77,0.39,3.71,1.39c0.6,2.19,0.54,4.49,0.59,6.74c-0.01,19.7,0.24,39.39,0.61,59.08c0.05,1.51,0.11,3.65,2.12,3.75
		c9.35,2.58,18.92,4.31,28.24,7.01c-1.17,1.43-2.33,2.85-3.48,4.29c8.46,2.71,17.33,3.93,25.75,6.81c-3.59,3.5-7.65,6.45-11.27,9.9
		c-6.5-1.51-12.95-3.24-19.45-4.74c-9.49,7.46-18.97,14.93-28.41,22.45c-1.11,0.78-2.1,1.83-3.41,2.24
		c-2.13-0.31-4.19-0.98-6.25-1.55c-6.68,4.92-13.05,10.24-19.65,15.26c-18.52-5.08-37.21-9.55-55.71-14.67
		c-0.26-5.83-0.52-11.66-0.79-17.48c-3.66-0.94-7.29-1.94-10.92-2.95c-0.41-7.01-0.33-14.05-1.17-21.03
		c-1.79,0.15-3.57,0.3-5.35,0.46c-0.29-5.01-0.5-10.02-0.77-15.03c-27.12-6.74-54.26-13.47-81.43-20.05
		c-20.08,12.36-39.8,25.31-59.91,37.61c-5.14-1.35-10.3-2.61-15.4-4.09c-0.9-6.82-1.21-13.7-2.18-20.5
		c-2.39-0.69-4.77-1.38-7.14-2.08c37.22-22.5,74.47-44.94,111.71-67.4c20.28,4.51,40.5,9.32,60.78,13.81
		C616.06,241.76,624.32,236.58,632.44,231.18z"/>
</g>
<g>
	<path class="st3" d="M941.67,286.65c1.04-1.39,2.72-1.12,4.23-0.8c29.27,6.38,58.49,13.01,87.82,19.12
		c-0.04,3.34-0.12,6.68-0.47,10c-1.71,16.85-2.81,33.76-4.72,50.58c12.79,3.53,25.8,6.17,38.69,9.3
		c24.38,5.67,48.72,11.56,73.14,17.04c0.4-2.97,0.82-5.95,1.24-8.92c3.6,0.46,7.18,1.14,10.72,1.98c0.39,2.03,0.79,4.07,1.15,6.12
		c3.43,26.54,7.03,53.07,10.57,79.59c-3.88-1.13-7.82-2.06-11.79-2.73c-1.06,7.57-2.03,15.15-3.05,22.73
		c-35.73-9.02-71.39-18.35-107.09-27.49c0.71-13.75,2.94-27.37,3.66-41.12c-11.19-2.74-22.37-5.54-33.57-8.26
		c0.11-5.05,0.5-10.09,1.16-15.09c-33.1-8.46-66.39-16.19-99.55-24.39c-15.35,14.63-30.46,29.5-45.91,44.02
		c-15.58-3.95-31.17-7.88-46.69-12.05c0-0.22-0.01-0.67-0.01-0.89c5.47-5.4,11.45-10.26,16.94-15.64
		c-12.7-3.34-25.46-6.43-38.17-9.69c6.54-5.63,12.98-11.38,19.57-16.95c8.83-7.52,17.53-15.19,26.3-22.78
		c10.47,2.46,20.92,5,31.39,7.47c1.61-1.42,3.23-2.85,4.85-4.28c2.73,0.61,5.48,1.24,8.21,1.92c1.36-1.25,2.72-2.49,4.09-3.74
		c0.08-4.24,0.23-8.47,0.41-12.7C910.33,314.79,926.11,300.83,941.67,286.65z"/>
</g>
<g>
	<path class="st4" d="M460.1,327.31c20.11-12.3,39.83-25.25,59.91-37.61c27.17,6.58,54.31,13.31,81.43,20.05
		c0.27,5.01,0.48,10.02,0.77,15.03c1.78-0.16,3.56-0.31,5.35-0.46c0.84,6.98,0.76,14.02,1.17,21.03c3.63,1.01,7.26,2.01,10.92,2.95
		c0.27,5.82,0.53,11.65,0.79,17.48c18.5,5.12,37.19,9.59,55.71,14.67c-4.51,3.55-9,7.1-13.53,10.61c-0.35,2.89,1.4,6.95-1.84,8.66
		c-17.85,14.01-35.63,28.12-53.47,42.15c-0.15-4.07-0.4-8.13-0.63-12.19c-3.07-0.87-6.15-1.72-9.24-2.51
		c-3.65,2.96-7.39,5.81-11.14,8.63c-7.15-2.1-14.37-3.97-21.49-6.16c-1.38-25.11-3.04-50.21-4.48-75.31
		c-5.21-1.37-10.37-2.94-15.63-4.08c-2.12-0.69-3.86,1.02-5.63,1.86c-22.4-5.78-44.77-11.73-67.16-17.58
		c-22.11,14.13-44.16,28.36-66.28,42.48c0.43,3.89,0.84,7.78,1.23,11.67c-15.49-4.32-30.94-8.72-46.4-13.14
		c-0.89-7.15-1.71-14.3-2.73-21.42c-2.53-0.67-5.05-1.37-7.56-2.07c28.36-17.21,56.81-34.27,85.21-51.41
		c2.37,0.7,4.75,1.39,7.14,2.08c0.97,6.8,1.28,13.68,2.18,20.5C449.8,324.7,454.96,325.96,460.1,327.31z"/>
</g>
<g>
	<path class="st5" d="M405.63,377.01c22.12-14.12,44.17-28.35,66.28-42.48c22.39,5.85,44.76,11.8,67.16,17.58
		c1.77-0.84,3.51-2.55,5.63-1.86c5.26,1.14,10.42,2.71,15.63,4.08c1.44,25.1,3.1,50.2,4.48,75.31c7.12,2.19,14.34,4.06,21.49,6.16
		c3.75-2.82,7.49-5.67,11.14-8.63c3.09,0.79,6.17,1.64,9.24,2.51c0.23,4.06,0.48,8.12,0.63,12.19
		c-21.43,16.95-42.91,33.83-64.33,50.79c-2.44-0.7-4.87-1.42-7.29-2.17c-11.62,9.2-23.35,18.24-34.96,27.45
		c-67.66-20.99-135.28-42.11-202.91-63.17c-7.52,4.87-15.02,9.76-22.57,14.57c-16.95-5.49-33.95-10.84-50.94-16.22
		c-1.41-7.6-2.72-15.22-3.98-22.85c43.33-26,86.53-52.21,129.84-78.22c2.51,0.7,5.03,1.4,7.56,2.07c1.02,7.12,1.84,14.27,2.73,21.42
		c15.46,4.42,30.91,8.82,46.4,13.14C406.47,384.79,406.06,380.9,405.63,377.01z"/>
</g>
<g>
	<path class="st6" d="M867.9,418.33c15.45-14.52,30.56-29.39,45.91-44.02c33.16,8.2,66.45,15.93,99.55,24.39
		c-0.66,5-1.05,10.04-1.16,15.09c11.2,2.72,22.38,5.52,33.57,8.26c-0.72,13.75-2.95,27.37-3.66,41.12
		c35.7,9.14,71.36,18.47,107.09,27.49c1.02-7.58,1.99-15.16,3.05-22.73c3.97,0.67,7.91,1.6,11.79,2.73
		c3.39,25.44,6.82,50.87,10.23,76.31c0.82,7.37,2.31,14.68,2.65,22.11c-4.2-1.14-8.39-2.28-12.58-3.44c-0.52,3.48-1,6.97-1.49,10.45
		c-61.01-16.62-121.9-33.67-182.85-50.48c1.29-22.48,3.58-44.9,4.94-67.37c-7.06-1.81-14.12-3.63-21.16-5.52
		c-1.04,1-2.06,2.01-3.08,3.02c-27.78-7.18-55.52-14.54-83.33-21.65c-7.04,6.93-14.05,13.89-21.13,20.77
		c-0.01-7.31,0.48-14.6,0.52-21.9c0.16-1.7-0.28-3.79,1.17-5.03C861.21,424.68,864.54,421.49,867.9,418.33z"/>
</g>
<g>
	<path class="st7" d="M877.37,434.09c27.81,7.11,55.55,14.47,83.33,21.65c1.02-1.01,2.04-2.02,3.08-3.02
		c7.04,1.89,14.1,3.71,21.16,5.52c-1.36,22.47-3.65,44.89-4.94,67.37c60.95,16.81,121.84,33.86,182.85,50.48
		c0.49-3.48,0.97-6.97,1.49-10.45c4.19,1.16,8.38,2.3,12.58,3.44l0.33,0.09c6.06,45.64,12.19,91.28,18.2,136.93
		c-0.83,9.03-2.75,17.97-4.06,26.95c-156.1-48.55-312.18-97.18-468.25-145.83c-0.03-3.75-0.01-7.49-0.17-11.22
		c-0.78-3.65,3.17-5.42,5.16-7.75c3.59,1.05,7.16,2.17,10.75,3.26c24.76-24.43,49.52-48.87,74.25-73.34
		c0.95-1.06,2.16-1.78,3.64-1.79l-0.56-1.56l1.26,1.09c0.07-1.68,0.44-3.44,1.77-4.58c12.36-12.13,24.66-24.32,37-36.47
		C863.32,447.98,870.33,441.02,877.37,434.09z"/>
</g>
</svg>
