<?xml version="1.0" encoding="UTF-8" standalone="no"?>
<!-- Created with Inkscape (http://www.inkscape.org/) -->

<svg
   version="1.1"
   id="svg2912"
   width="880"
   height="880"
   viewBox="0 0 880 880"
   sodipodi:docname="lizard-tree-graphics-pdv.svg"
   inkscape:version="1.2 (dc2aedaf03, 2022-05-15)"
   xmlns:inkscape="http://www.inkscape.org/namespaces/inkscape"
   xmlns:sodipodi="http://sodipodi.sourceforge.net/DTD/sodipodi-0.dtd"
   xmlns="http://www.w3.org/2000/svg"
   xmlns:svg="http://www.w3.org/2000/svg">
  <defs
     id="defs2916">
    <clipPath
       clipPathUnits="userSpaceOnUse"
       id="clipPath2930">
      <path
         d="M 0,660 H 660 V 0 H 0 Z"
         id="path2928" />
    </clipPath>
  </defs>
  <sodipodi:namedview
     id="namedview2914"
     pagecolor="#ffffff"
     bordercolor="#000000"
     borderopacity="0.25"
     inkscape:showpageshadow="2"
     inkscape:pageopacity="0.0"
     inkscape:pagecheckerboard="0"
     inkscape:deskcolor="#d1d1d1"
     showgrid="false"
     inkscape:zoom="0.95113636"
     inkscape:cx="441.05137"
     inkscape:cy="440.52569"
     inkscape:window-width="1920"
     inkscape:window-height="1017"
     inkscape:window-x="-8"
     inkscape:window-y="-8"
     inkscape:window-maximized="1"
     inkscape:current-layer="g2920">
    <inkscape:page
       x="0"
       y="0"
       id="page2918"
       width="880"
       height="880" />
  </sodipodi:namedview>
  <g
     id="g2920"
     inkscape:groupmode="layer"
     inkscape:label="Page 1"
     transform="matrix(1.3333333,0,0,-1.3333333,0,880)">
    <path
       d="M 3.879,0.082 H 660 V 659.66 H 3.879 Z"
       style="fill:#eaf1f7;fill-opacity:1;fill-rule:nonzero;stroke:none"
       id="path2922" />
    <g
       id="g2924">
      <g
         id="g2926"
         clip-path="url(#clipPath2930)">
        <g
           id="g2932"
           transform="translate(663.4561,0.082)">
          <path
             d="m 0,0 c -69.286,103.608 -25.01,330.311 -140.161,365.754 -144.537,44.491 -60.212,149.077 -72.871,237.828 -1.769,12.394 -23.924,36.765 -48.42,55.995 h -321.224 c -61.537,-89.173 -63.25,-146.779 -21.945,-276.681 31.549,-99.222 59.292,-248.563 29.858,-382.896 z"
             style="fill:#ccccaf;fill-opacity:1;fill-rule:evenodd;stroke:none"
             id="path2934" />
        </g>
        <g
           id="g2936"
           transform="translate(663.4561,0.082)">
          <path
             d="m 0,0 c -69.286,103.608 -25.01,330.311 -140.161,365.754 -144.537,44.491 -60.212,149.077 -72.871,237.828 -1.769,12.394 -23.924,36.765 -48.42,55.995 h -39.217 c 10.618,-17.312 14.477,-26.99 45.691,-49.063 17.166,-12.138 9.937,-124.204 21.55,-151.582 9.484,-22.364 -11.833,-39.847 40.123,-84.003 C -161.16,347.613 -129.278,304 -122.455,262.58 -107.763,173.415 -94.387,87.344 -101.168,0 Z"
             style="fill:#babaa0;fill-opacity:1;fill-rule:evenodd;stroke:none"
             id="path2938" />
        </g>
        <g
           id="g2940"
           transform="translate(142.1948,659.6592)">
          <path
             d="m 0,0 c -5.846,-30.388 -14.588,-60.252 -24.436,-74.644 -64.073,-93.649 -60.12,-248.946 29.649,-147.718 16.353,18.439 29.846,162.375 40.978,194.976 3.649,10.685 6.356,19.509 8.735,27.386 z m 78.996,-659.577 h -95.333 c 7.249,60.835 32.61,106.957 56.808,172.835 11.612,31.617 -31.671,263.261 39.678,158.827 38.247,-55.979 38.007,-59.521 38.007,-125.241 0,-20.312 -20.865,-104.098 -27.306,-121.34 -8.224,-22.018 -10.707,-53.062 -11.854,-85.081 M 101.128,0 c -7.931,-50.572 2.059,-126.325 7.259,-143.526 25.465,-84.261 59.472,-155.84 92.88,-235.064 35.148,-83.354 -27.438,-175.346 -18.881,-280.987 h 187.1 c -0.968,5.052 -1.668,9.086 -1.998,11.706 -9.708,76.958 -10.071,101.922 -10.071,178.777 0,124.342 23.461,89.746 -73.56,200.103 -52.162,59.331 -75.977,51.038 -75.977,138.988 0,90.8 -14.649,58.315 -26.751,122.307 -0.508,2.693 -0.918,5.256 -1.249,7.696 z"
             style="fill:#d6d6bf;fill-opacity:1;fill-rule:evenodd;stroke:none"
             id="path2942" />
        </g>
        <g
           id="g2944"
           transform="translate(269.2383,659.6592)">
          <path
             d="m 0,0 h 37.643 c 0.074,-18.642 -0.948,-37.522 3.403,-46.241 5.96,-11.942 15.88,-166.698 -36.595,-97.749 C -1.878,-135.673 -1.759,-53.556 0,0 m -95.436,-659.577 h -22.253 c 1.622,6.17 3.346,12.014 4.997,17.334 2.639,1.092 20.1,89.612 20.286,90.095 9.105,23.566 35.425,168.513 38.342,171.163 48.877,44.372 8.34,-91.531 8.768,-98.604 0.586,-9.697 -26.28,-79.631 -30.763,-88.088 -16.465,-31.058 -19.608,-61.176 -19.377,-91.9 m 280.717,0 h -79.717 c 24.607,78.183 15.583,135.994 15.583,220.3 0,20.654 14.993,95.309 30.354,100.125 50.873,15.949 37.264,-68.588 37.264,-94.292 0,-46.045 -15.821,-138.779 -9.103,-168.377 3.391,-14.932 4.749,-36.45 5.619,-57.756 m -322.903,577.679 c 0.388,-12.708 -25.803,-23.278 -24.055,-59.491 0.965,-19.974 -46.762,-33.091 -6.112,-85.06 15.048,-19.237 27.903,62.982 30.392,70.403 4.529,13.518 21.232,55.78 21.232,68.621 0,9.214 -14.885,17.476 -21.457,5.527"
             style="fill:#e3e3cc;fill-opacity:1;fill-rule:evenodd;stroke:none"
             id="path2946" />
        </g>
        <g
           id="g2948"
           transform="translate(492.5557,467.0972)">
          <path
             d="m 0,0 c 0.567,-10.784 -9.922,-20.102 -23.427,-20.811 -13.503,-0.71 -24.91,7.458 -25.477,18.243 -0.565,10.785 9.921,20.103 23.426,20.812 C -11.973,18.953 -0.565,10.786 0,0"
             style="fill:#a7bf1c;fill-opacity:1;fill-rule:evenodd;stroke:none"
             id="path2950" />
        </g>
        <g
           id="g2952"
           transform="translate(363.5742,398.2378)">
          <path
             d="m 0,0 c -6.643,6.111 -11.566,12.209 -16.335,19.886 -4.745,7.868 -8.709,15.311 -11.081,24.262 -3.171,12.502 -1.893,24.494 3.166,36.416 1.435,3.154 2.982,6.258 4.851,9.181 2.232,3.489 7.206,8.614 8.093,11.809 1.083,3.911 -0.87,14.012 -1.689,18.344 -0.999,5.267 -0.225,15.329 4.121,18.938 5.304,3.48 9.34,-11.178 13.864,-13.485 10.426,-5.319 17.601,17.257 24.183,14.915 4.576,-1.627 -1.676,-12.05 -2.827,-14.712 -5.135,-11.879 2.918,-13.72 12.6,-14.899 3.628,-0.457 9.958,-1.028 7.755,-6.217 C 44.255,100.012 27.296,95.722 21.924,93.444 13.262,89.768 6.874,81.976 2.633,73.762 -4.812,57.849 13.282,34.432 20.404,20.525 28.801,-0.316 17.019,-14.879 0,0 m -100.493,-73.412 c -3.894,8.386 -6.139,18.206 -3.737,27.305 1.49,5.642 8.489,21.674 6.491,26.319 -2.754,4.92 -7.082,0.267 -9.666,-2.321 -6.862,-6.931 -13.253,-12.167 -19.494,-0.83 -1.399,2.54 -5.808,13.865 -9.895,11.247 -5.884,-3.768 7.562,-23.27 -3.028,-28.252 -4.597,-2.163 -18.653,3.63 -19.152,-2.696 0.19,-5.645 7.668,-12.421 12.445,-14.86 3.924,-2.004 13.105,-6.648 15.53,-9.902 1.981,-2.657 2.986,-9.729 4.377,-13.632 1.166,-3.266 2.671,-6.391 4.284,-9.456 5.616,-9.605 10.336,-15.871 20.861,-20.18 11.355,-4.648 19.408,-13.881 19.681,-26.453 0.267,-12.317 -5.596,-22.101 1.13,-34.021 2.417,-4.279 5.137,-5.662 9.93,-5.08 5.338,1.073 12.561,13.632 17.025,17.992 5.503,5.374 9.57,5.59 13.278,13.304 2.022,4.527 2.058,12.71 6.134,15.583 3.266,2.303 3.253,2.145 4.862,6.178 l 0.334,0.837 c 1.729,4.984 2.685,13.831 -1.065,18.173 -2.272,2.633 -2.798,2.434 -4.669,5.987 -5.858,11.449 -9.773,24.001 -24.279,26.858 -17.779,3.503 -23.734,-22.782 -38.659,-5.883 -1.118,1.265 -1.833,2.363 -2.718,3.783"
             style="fill:#7a8f06;fill-opacity:1;fill-rule:evenodd;stroke:none"
             id="path2954" />
        </g>
        <g
           id="g2956"
           transform="translate(317.165,372.3647)">
          <path
             d="m 0,0 c 33.385,70.528 86.77,112.931 167.969,104.173 36.819,-3.971 43.426,-30.27 25.8,-59.422 -29.263,-42.259 -55.989,-5.516 -71.388,-63.332 -0.39,-1.461 -0.775,-2.897 -1.162,-4.313 12.556,-10.074 29.37,-24.507 43.537,-20.245 8.743,3.009 17.378,8.2 22.269,16.24 3.033,4.986 9.732,21.144 14.466,22.925 5.454,1.428 5.101,-4.918 5.029,-8.573 -0.238,-9.752 0.42,-17.988 12.917,-14.626 2.801,0.755 14.018,5.429 14.966,0.668 1.364,-6.852 -22.012,-10.684 -18.26,-21.771 1.629,-4.81 15.547,-10.924 11.336,-15.669 -4.2,-3.777 -14.267,-3.086 -19.336,-1.336 -4.165,1.439 -13.877,4.834 -17.905,4.327 -3.289,-0.415 -9.08,-4.593 -12.857,-6.297 -3.162,-1.426 -6.458,-2.507 -9.784,-3.47 -12.53,-3.279 -24.581,-2.809 -36.493,2.139 -7.809,3.342 -14.167,7.827 -20.643,13.046 -7.177,-17.06 -16.879,-31.74 -33.662,-48.161 -7.319,-7.161 -15.262,-13.436 -23.639,-19.057 8.582,-5.569 16.462,-11.396 17.318,-23.226 1.307,-18.072 -25.51,-20.775 -10.56,-37.651 1.12,-1.262 2.123,-2.107 3.423,-3.16 7.847,-4.887 17.32,-8.316 26.645,-7.041 5.781,0.789 22.547,5.777 26.915,3.227 4.546,-3.334 -0.601,-7.06 -3.486,-9.31 -7.716,-5.967 -13.693,-11.668 -3.204,-19.248 2.35,-1.699 13.055,-7.458 9.956,-11.196 -4.457,-5.38 -22.174,10.35 -28.411,0.446 -2.709,-4.297 1.325,-18.956 -5.016,-18.678 -5.579,0.878 -11.39,9.126 -13.228,14.163 -1.511,4.141 -4.999,13.82 -7.932,16.627 -2.396,2.292 -9.291,4.152 -12.995,6.008 -3.099,1.553 -6.018,3.43 -8.863,5.408 -8.848,6.745 -14.49,12.194 -17.481,23.168 -3.227,11.838 -11.407,20.957 -23.852,22.763 -9.606,1.394 -18.114,-1.179 -26.678,1.644 -56.271,-21.133 -136.547,-55.375 -101.37,-111.966 l 2.817,-4.531 c 25.915,-38.426 79.908,-35.376 91.802,11.32 7.533,29.58 -14.29,34.619 -10.148,43.178 5.014,-0.212 19.097,-16.263 21.13,-23.101 11.831,-39.753 -28.525,-81.008 -71.017,-71.973 l -3.708,0.789 c -20.546,5.181 -40.576,17.139 -53.982,33.64 -33.52,45.079 -6.734,97.139 28.272,131.56 26.286,24.864 53.668,46.3 81.013,69.567 C -15.715,-60.101 -10.163,-28.029 0,0"
             style="fill:#94ab13;fill-opacity:1;fill-rule:evenodd;stroke:none"
             id="path2958" />
        </g>
        <g
           id="g2960"
           transform="translate(519.1572,436.4727)">
          <path
             d="m 0,0 c -1.422,-6.147 -4.185,-12.677 -8.224,-19.357 -29.262,-42.259 -55.988,-5.516 -71.387,-63.332 -0.39,-1.461 -0.775,-2.897 -1.162,-4.313 12.556,-10.074 29.37,-24.507 43.537,-20.245 8.743,3.009 17.378,8.2 22.269,16.24 3.033,4.986 9.732,21.144 14.466,22.925 5.454,1.428 5.101,-4.918 5.028,-8.573 -0.237,-9.752 0.421,-17.988 12.917,-14.626 2.802,0.755 14.019,5.429 14.967,0.668 1.363,-6.852 -22.013,-10.684 -18.261,-21.771 1.63,-4.81 15.548,-10.924 11.336,-15.669 -4.199,-3.777 -14.266,-3.086 -19.336,-1.336 -4.165,1.439 -13.876,4.834 -17.904,4.327 -3.289,-0.415 -9.08,-4.593 -12.857,-6.297 -3.162,-1.426 -6.458,-2.507 -9.784,-3.47 -12.53,-3.279 -24.581,-2.809 -36.493,2.139 -7.809,3.342 -14.167,7.827 -20.643,13.046 -7.177,-17.06 -16.879,-31.74 -33.662,-48.161 -7.319,-7.161 -15.262,-13.436 -23.639,-19.057 8.582,-5.569 16.462,-11.396 17.317,-23.226 1.308,-18.072 -25.509,-20.775 -10.559,-37.651 1.12,-1.262 2.123,-2.107 3.423,-3.16 7.847,-4.887 17.32,-8.316 26.645,-7.041 5.78,0.789 22.547,5.777 26.915,3.227 4.546,-3.334 -0.601,-7.06 -3.486,-9.31 -7.716,-5.967 -13.693,-11.668 -3.204,-19.248 2.349,-1.699 13.055,-7.458 9.956,-11.196 -4.457,-5.38 -22.174,10.35 -28.411,0.446 -2.709,-4.297 1.325,-18.956 -5.016,-18.678 -5.579,0.878 -11.391,9.126 -13.228,14.163 -1.511,4.141 -4.999,13.82 -7.932,16.627 -2.397,2.292 -9.291,4.152 -12.995,6.008 -3.099,1.553 -6.018,3.43 -8.863,5.408 -8.848,6.745 -14.49,12.194 -17.481,23.168 -3.227,11.838 -11.407,20.957 -23.852,22.763 -9.606,1.394 -18.114,-1.179 -26.678,1.644 -56.271,-21.133 -136.548,-55.375 -101.37,-111.966 l 2.817,-4.531 c 25.915,-38.426 79.908,-35.376 91.802,11.32 7.533,29.58 -14.29,34.619 -10.148,43.178 42.836,-64.913 -22.974,-102.19 -61.531,-85.948 -26.997,11.371 -55.73,42.099 -42.168,77.103 11.755,30.348 52.153,64.916 92.524,82.492 16.176,7.042 32.667,7.197 48.972,0.458 16.307,-6.741 27.873,-18.512 34.352,-34.925 4.099,-10.386 27.343,20.482 26.096,31.811 -1.323,12.018 -14.131,19.22 -22.767,27.684 27.821,18.004 63.159,42.075 71.333,82.042 17.255,-6.247 24.622,-25.253 42.866,-23.267 13.694,1.49 26.197,12.692 6.316,11.683 -22.761,-1.154 -32.831,22.866 -53.693,32.038 0.163,0.793 0.308,1.58 0.439,2.356 4.804,28.415 25.824,58.251 53.956,54.926 C -19.391,-29.667 -12.809,-23.234 0,0"
             style="fill:#7a8f06;fill-opacity:1;fill-rule:evenodd;stroke:none"
             id="path2962" />
        </g>
        <g
           id="g2964"
           transform="translate(493.3662,463.0527)">
          <path
             d="m 0,0 c 9.298,-5.496 11.254,-19.389 4.373,-31.03 -6.883,-11.64 -19.998,-16.621 -29.296,-11.125 -9.295,5.495 -11.251,19.388 -4.37,31.029 C -22.413,0.514 -9.295,5.497 0,0"
             style="fill:#a7bf1c;fill-opacity:1;fill-rule:evenodd;stroke:none"
             id="path2966" />
        </g>
        <g
           id="g2968"
           transform="translate(497.0303,450.8379)">
          <path
             d="m 0,0 c 6.976,-4.124 8.444,-14.548 3.28,-23.284 -5.164,-8.736 -15.006,-12.473 -21.983,-8.349 -6.976,4.125 -8.444,14.549 -3.28,23.283 C -16.819,0.386 -6.976,4.124 0,0"
             style="fill:#333333;fill-opacity:1;fill-rule:evenodd;stroke:none"
             id="path2970" />
        </g>
        <g
           id="g2972"
           transform="translate(496.8906,441.8262)">
          <path
             d="m 0,0 c 4.002,-2.367 4.847,-8.351 1.882,-13.363 -2.964,-5.013 -8.612,-7.159 -12.616,-4.792 -4.002,2.367 -4.845,8.35 -1.882,13.363 C -9.653,0.222 -4.004,2.366 0,0"
             style="fill:#e6e6e6;fill-opacity:1;fill-rule:evenodd;stroke:none"
             id="path2974" />
        </g>
        <g
           id="g2976"
           transform="translate(496.7217,437.0249)">
          <path
             d="m 0,0 c 2.351,-1.392 2.849,-4.907 1.105,-7.854 -1.743,-2.947 -5.061,-4.207 -7.415,-2.817 -2.353,1.391 -2.848,4.908 -1.106,7.855 C -5.675,0.131 -2.353,1.392 0,0"
             style="fill:#333333;fill-opacity:1;fill-rule:evenodd;stroke:none"
             id="path2978" />
        </g>
        <g
           id="g2980"
           transform="translate(299.9395,256.0234)">
          <path
             d="m 0,0 c -28.777,-11.867 -47.698,-25.921 -73.843,-38.483 -25.909,-12.45 -19.583,1.128 -5.887,15.399 24.133,25.143 43.096,34.066 69.584,54.003 21.103,15.882 23.058,45.727 32.658,68.654 l 3.018,7.213 1.949,4.188 c 14.68,28.496 56.874,84.607 92.324,83.483 28.413,-0.902 -4.401,-44.518 -10.149,-54.409 C 98.234,120.397 87.828,100.271 75.963,80.909 53.903,43.643 41.983,18.323 0,0"
             style="fill:#a7bf1c;fill-opacity:1;fill-rule:evenodd;stroke:none"
             id="path2982" />
        </g>
        <g
           id="g2984"
           transform="translate(449.9414,452.1743)">
          <path
             d="m 0,0 c 0.569,7.262 -9.888,11.173 -16.397,14.44 -1.914,0.961 -5.22,-1.369 -5.389,-3.505 -0.559,-7.112 -2.917,-17.918 3.458,-21.117 C -12.08,-13.318 -0.546,-6.967 0,0"
             style="fill:#7a8f06;fill-opacity:1;fill-rule:evenodd;stroke:none"
             id="path2986" />
        </g>
        <g
           id="g2988"
           transform="translate(424.5342,440.9585)">
          <path
             d="m 0,0 c -1.561,6.98 -12.502,7.637 -19.554,8.826 -2.074,0.351 -4.506,-2.79 -4.047,-4.844 1.526,-6.835 2.428,-17.659 9.333,-18.824 C -7.501,-15.982 1.496,-6.697 0,0"
             style="fill:#7a8f06;fill-opacity:1;fill-rule:evenodd;stroke:none"
             id="path2990" />
        </g>
        <g
           id="g2992"
           transform="translate(403.6299,422.1421)">
          <path
             d="m 0,0 c -3.001,6.346 -13.621,4.612 -20.631,4.227 -2.061,-0.114 -3.713,-3.646 -2.83,-5.513 2.94,-6.215 6.14,-16.384 13.006,-16.008 C -3.729,-16.926 2.878,-6.09 0,0"
             style="fill:#7a8f06;fill-opacity:1;fill-rule:evenodd;stroke:none"
             id="path2994" />
        </g>
        <g
           id="g2996"
           transform="translate(386.6289,398.915)">
          <path
             d="m 0,0 c -3.499,5.935 -13.726,3.29 -20.54,2.289 -2.007,-0.294 -3.302,-3.894 -2.273,-5.64 3.426,-5.812 7.462,-15.464 14.137,-14.484 C -2.134,-16.875 3.358,-5.695 0,0"
             style="fill:#7a8f06;fill-opacity:1;fill-rule:evenodd;stroke:none"
             id="path2998" />
        </g>
        <g
           id="g3000"
           transform="translate(371.7266,373.9141)">
          <path
             d="m 0,0 c -3.594,5.724 -13.55,2.852 -20.208,1.682 -1.957,-0.344 -3.132,-3.91 -2.074,-5.595 3.522,-5.606 7.744,-14.961 14.265,-13.816 C -1.63,-16.608 3.45,-5.492 0,0"
             style="fill:#7a8f06;fill-opacity:1;fill-rule:evenodd;stroke:none"
             id="path3002" />
        </g>
        <g
           id="g3004"
           transform="translate(357.4111,348.2256)">
          <path
             d="m 0,0 c -3.353,5.72 -13.2,3.201 -19.762,2.255 -1.931,-0.279 -3.189,-3.74 -2.203,-5.422 3.285,-5.603 7.146,-14.902 13.571,-13.975 C -2.096,-16.234 3.217,-5.488 0,0"
             style="fill:#7a8f06;fill-opacity:1;fill-rule:evenodd;stroke:none"
             id="path3006" />
        </g>
        <g
           id="g3008"
           transform="translate(341.9805,322.5498)">
          <path
             d="m 0,0 c -2.513,5.995 -12.413,4.83 -18.913,4.764 -1.911,-0.02 -3.585,-3.22 -2.846,-4.984 2.463,-5.872 5.003,-15.413 11.369,-15.348 C -4.15,-15.506 2.412,-5.753 0,0"
             style="fill:#7a8f06;fill-opacity:1;fill-rule:evenodd;stroke:none"
             id="path3010" />
        </g>
        <g
           id="g3012"
           transform="translate(322.9702,299.0146)">
          <path
             d="m 0,0 c -1.308,6.236 -11.054,6.951 -17.323,8.094 -1.845,0.336 -4.049,-2.435 -3.663,-4.271 1.28,-6.108 1.957,-15.764 8.099,-16.882 C -6.872,-14.157 1.255,-5.985 0,0"
             style="fill:#7a8f06;fill-opacity:1;fill-rule:evenodd;stroke:none"
             id="path3014" />
        </g>
        <g
           id="g3016"
           transform="translate(300.394,279.3623)">
          <path
             d="m 0,0 c -0.463,6.229 -9.837,8.185 -15.78,10.107 -1.748,0.567 -4.25,-1.839 -4.112,-3.672 0.451,-6.101 -0.142,-15.569 5.678,-17.453 C -8.512,-12.863 0.442,-5.979 0,0"
             style="fill:#7a8f06;fill-opacity:1;fill-rule:evenodd;stroke:none"
             id="path3018" />
        </g>
        <g
           id="g3020"
           transform="translate(276.1631,262.6514)">
          <path
             d="m 0,0 c -0.222,6.117 -9.327,8.378 -15.075,10.48 -1.694,0.619 -4.229,-1.643 -4.165,-3.444 0.22,-5.99 -0.714,-15.239 4.916,-17.299 C -8.807,-12.279 0.214,-5.871 0,0"
             style="fill:#7a8f06;fill-opacity:1;fill-rule:evenodd;stroke:none"
             id="path3022" />
        </g>
        <g
           id="g3024"
           transform="translate(252.3682,246.3379)">
          <path
             d="m 0,0 c -0.665,5.958 -9.727,7.501 -15.497,9.135 -1.697,0.478 -4.008,-1.917 -3.814,-3.672 0.652,-5.835 0.419,-14.938 6.07,-16.536 C -7.704,-12.639 0.637,-5.716 0,0"
             style="fill:#7a8f06;fill-opacity:1;fill-rule:evenodd;stroke:none"
             id="path3026" />
        </g>
        <g
           id="g3028"
           transform="translate(231.0088,227.6328)">
          <path
             d="m 0,0 c -1.566,5.657 -10.565,5.746 -16.398,6.43 -1.714,0.201 -3.579,-2.474 -3.12,-4.14 1.537,-5.541 2.722,-14.379 8.432,-15.05 C -5.49,-13.416 1.503,-5.431 0,0"
             style="fill:#7a8f06;fill-opacity:1;fill-rule:evenodd;stroke:none"
             id="path3030" />
        </g>
      </g>
    </g>
  </g>
</svg>
